wdth125.ufo
<glyph name="zero" format="2">
	<unicode hex="0030"/>
	<advance width="1170"/>
	<outline>
		<contour>
			<point x="74.9970703125" y="746" type="qcurve" smooth="yes"/>
			<point x="74.9970703125" y="1091"/>
			<point x="375.2518310547" y="1520"/>
			<point x="586.7662353516" y="1520" type="qcurve" smooth="yes"/>
			<point x="802.1605224609" y="1520"/>
			<point x="1094.8860473633" y="1097"/>
			<point x="1094.8860473633" y="754" type="qcurve" smooth="yes"/>
			<point x="1094.8860473633" y="418"/>
			<point x="807.1724243164" y="-22"/>
			<point x="591.7662353516" y="-22" type="qcurve" smooth="yes"/>
			<point x="371.9574584961" y="-22"/>
			<point x="74.9970703125" y="399"/>
		</contour>
		<contour>
			<point x="256.1156005859" y="772" type="qcurve" smooth="yes"/>
			<point x="259" y="481"/>
			<point x="442.7662353516" y="89.0457763672"/>
			<point x="584.7662353516" y="89.0457763672" type="qcurve" smooth="yes"/>
			<point x="738.7662353516" y="89.0457763672"/>
			<point x="917" y="447"/>
			<point x="913.7675170898" y="746" type="qcurve" smooth="yes"/>
			<point x="917" y="1027"/>
			<point x="730.7662353516" y="1401.5257568359"/>
			<point x="588.7662353516" y="1401.5257568359" type="qcurve" smooth="yes"/>
			<point x="429.7662353516" y="1401.5257568359"/>
			<point x="259" y="1060"/>
		</contour>
	</outline>
</glyph>
<glyph name="one" format="2">
	<unicode hex="0031"/>
	<advance width="911"/>
	<outline>
		<contour>
			<point x="58.2819824219" y="0" type="line"/>
			<point x="58.2819824219" y="94" type="line"/>
			<point x="316.2783203125" y="129" type="line"/>
			<point x="316.2783203125" y="754" type="line"/>
			<point x="314.2783203125" y="1361.6690673828" type="line"/>
			<point x="55.4982910156" y="1396.0261230469" type="line"/>
			<point x="55.4982910156" y="1490" type="line"/>
			<point x="466.2897338867" y="1513" type="line"/>
			<point x="498.3016357422" y="1478" type="line"/>
			<point x="492.2897338867" y="754" type="line"/>
			<point x="492.2897338867" y="129" type="line"/>
			<point x="750.2860717773" y="94" type="line"/>
			<point x="750.2860717773" y="0" type="line"/>
		</contour>
	</outline>
</glyph>
<glyph name="two" format="2">
	<unicode hex="0032"/>
	<advance width="1125"/>
	<outline>
		<contour>
			<point x="41.9970703125" y="0" type="line"/>
			<point x="41.9970703125" y="113.1437988281" type="line"/>
			<point x="67.2828369141" y="235.515625"/>
			<point x="255.0883789062" y="479.4117431641"/>
			<point x="468.3876342773" y="633.0864257812" type="qcurve" smooth="yes"/>
			<point x="666.9462280273" y="778.0947875977"/>
			<point x="844.6737670898" y="973.8911743164"/>
			<point x="844.6737670898" y="1139.8983154297" type="qcurve" smooth="yes"/>
			<point x="844.6737670898" y="1262.1691894531"/>
			<point x="697.4526977539" y="1396.3543701172"/>
			<point x="542.9329223633" y="1396.3543701172" type="qcurve" smooth="yes"/>
			<point x="407.1795043945" y="1396.3543701172"/>
			<point x="207.5946655273" y="1309.1376953125"/>
			<point x="129.9970703125" y="1216.7352905273" type="qcurve"/>
			<point x="51.9970703125" y="1313.4025878906" type="line"/>
			<point x="129.4647216797" y="1397.948059082"/>
			<point x="368.5700073242" y="1520"/>
			<point x="578.9866943359" y="1520" type="qcurve" smooth="yes"/>
			<point x="785.3807983398" y="1520"/>
			<point x="1015.8756103516" y="1322.1568603516"/>
			<point x="1015.8756103516" y="1134.993347168" type="qcurve" smooth="yes"/>
			<point x="1015.8756103516" y="924.8110351562"/>
			<point x="784.8729858398" y="664.1313476562"/>
			<point x="574.9542236328" y="544.4342041016" type="qcurve" smooth="yes"/>
			<point x="426.8348388672" y="454.3176879883"/>
			<point x="249.7235717773" y="254.6427001953"/>
			<point x="210.8411865234" y="174.106628418" type="qcurve"/>
			<point x="218.8411865234" y="162.8923950195" type="line"/>
			<point x="1063.4752197266" y="162.8923950195" type="line"/>
			<point x="1063.4752197266" y="0" type="line"/>
		</contour>
	</outline>
</glyph>
<glyph name="three" format="2">
	<unicode hex="0033"/>
	<advance width="1053"/>
	<outline>
		<contour>
			<point x="-15.0029296875" y="140" type="qcurve"/>
			<point x="54.9970703125" y="242.2019042969" type="line"/>
			<point x="143.1401367188" y="165.2594604492"/>
			<point x="326.3613891602" y="93.9027099609"/>
			<point x="413.3746948242" y="93.9027099609" type="qcurve" smooth="yes"/>
			<point x="577.3750610352" y="93.9027099609"/>
			<point x="784.9989013672" y="242.2447509766"/>
			<point x="784.9989013672" y="398.7581787109" type="qcurve" smooth="yes"/>
			<point x="784.9989013672" y="570.6143798828"/>
			<point x="506.2839355469" y="722.2135009766"/>
			<point x="280.1275634766" y="726.2135009766" type="qcurve" smooth="yes"/>
			<point x="244.7377319336" y="726.2135009766" type="line"/>
			<point x="207.4390258789" y="832.5432128906" type="line"/>
			<point x="303.0107421875" y="837.62890625" type="line" smooth="yes"/>
			<point x="480.6735839844" y="846.8431396484"/>
			<point x="753.6741333008" y="1018.6564941406"/>
			<point x="753.6741333008" y="1177.2127685547" type="qcurve" smooth="yes"/>
			<point x="753.6741333008" y="1296.9549560547"/>
			<point x="617.2711791992" y="1398.8256835938"/>
			<point x="482.9462280273" y="1398.8256835938" type="qcurve" smooth="yes"/>
			<point x="379.7770996094" y="1398.8256835938"/>
			<point x="199.3610229492" y="1316.9365844727"/>
			<point x="126.9451293945" y="1242.9876708984" type="qcurve"/>
			<point x="68.6464233398" y="1333.4025878906" type="line"/>
			<point x="148.7969970703" y="1411.6493530273"/>
			<point x="365.2822265625" y="1520"/>
			<point x="523.1319580078" y="1520" type="qcurve" smooth="yes"/>
			<point x="733.1538696289" y="1520"/>
			<point x="936.8045654297" y="1332"/>
			<point x="936.8045654297" y="1185.4025878906" type="qcurve" smooth="yes"/>
			<point x="936.8045654297" y="1027"/>
			<point x="745.6399536133" y="850.3116455078"/>
			<point x="575.2359619141" y="800" type="qcurve"/>
			<point x="575.2716674805" y="793" type="line"/>
			<point x="757.3402099609" y="768.1948242188"/>
			<point x="973.5275878906" y="567.9221801758"/>
			<point x="973.5275878906" y="396.6754150391" type="qcurve" smooth="yes"/>
			<point x="973.5275878906" y="209"/>
			<point x="684.5065917969" y="-22"/>
			<point x="449.6696777344" y="-22" type="qcurve" smooth="yes"/>
			<point x="314.6445922852" y="-22"/>
			<point x="73.344543457" y="63.6493530273"/>
		</contour>
	</outline>
</glyph>
<glyph name="four" format="2">
	<unicode hex="0034"/>
	<advance width="1226"/>
	<outline>
		<contour>
			<point x="66.9970703125" y="554" type="line"/>
			<point x="798.0134887695" y="1529" type="line"/>
			<point x="908.0846557617" y="1502" type="line"/>
			<point x="949.4417114258" y="1456" type="line"/>
			<point x="941.4417114258" y="491" type="line"/>
			<point x="942.4417114258" y="129" type="line"/>
			<point x="1152.985168457" y="94" type="line"/>
			<point x="1152.985168457" y="0" type="line"/>
			<point x="471.0845336914" y="0" type="line"/>
			<point x="471.0845336914" y="94" type="line"/>
			<point x="766.5374145508" y="129" type="line"/>
			<point x="771.5374145508" y="489" type="line"/>
			<point x="771.5374145508" y="1312.6636352539" type="line"/>
			<point x="220.4627685547" y="564.2309570312" type="line"/>
			<point x="229.4627685547" y="554.2309570312" type="line"/>
			<point x="1164.7017822266" y="534.2309570312" type="line"/>
			<point x="1164.7017822266" y="444.4422607422" type="line"/>
			<point x="94.9970703125" y="440.4422607422" type="line"/>
		</contour>
	</outline>
</glyph>
<glyph name="five" format="2">
	<unicode hex="0035"/>
	<advance width="1195"/>
	<outline>
		<contour>
			<point x="11.9970703125" y="143" type="qcurve"/>
			<point x="69.0231323242" y="243.5301513672" type="line"/>
			<point x="126.4907836914" y="200.7797241211"/>
			<point x="381.5299682617" y="91.3594970703"/>
			<point x="527.0756225586" y="91.3594970703" type="qcurve" smooth="yes"/>
			<point x="726.4135131836" y="91.3594970703"/>
			<point x="919.076171875" y="286.0014648438"/>
			<point x="919.076171875" y="461.9005126953" type="qcurve" smooth="yes"/>
			<point x="919.076171875" y="634.7138671875"/>
			<point x="657.8290405273" y="801.8699951172"/>
			<point x="419.5425415039" y="801.8699951172" type="qcurve" smooth="yes"/>
			<point x="214.2957763672" y="801.8699951172" type="line"/>
			<point x="158.2957763672" y="850" type="line"/>
			<point x="246.2957763672" y="1467" type="line"/>
			<point x="283.2957763672" y="1500" type="line"/>
			<point x="984.149230957" y="1500" type="line"/>
			<point x="970.0302124023" y="1336.9885864258" type="line"/>
			<point x="354.607421875" y="1336.9885864258" type="line"/>
			<point x="340.5217285156" y="1325.9885864258" type="line"/>
			<point x="276.9552001953" y="905" type="line"/>
			<point x="430.4974365234" y="927" type="line"/>
			<point x="751.7192993164" y="926.6493530273"/>
			<point x="1088.4696044922" y="710.6493530273"/>
			<point x="1088.4696044922" y="482" type="qcurve" smooth="yes"/>
			<point x="1088.4696044922" y="241"/>
			<point x="803.9823608398" y="-22"/>
			<point x="539.762512207" y="-22" type="qcurve" smooth="yes"/>
			<point x="371.3381347656" y="-22"/>
			<point x="86.0220336914" y="77.2077636719"/>
		</contour>
	</outline>
</glyph>
<glyph name="six" format="2">
	<unicode hex="0036"/>
	<advance width="1218"/>
	<outline>
		<contour>
			<point x="75.9970703125" y="619" type="qcurve" smooth="yes"/>
			<point x="75.9970703125" y="946.6493530273"/>
			<point x="477.9619750977" y="1456.0909423828"/>
			<point x="835.5869750977" y="1579" type="qcurve"/>
			<point x="862.8176879883" y="1478.5301513672" type="line"/>
			<point x="606.2931518555" y="1375.3912963867"/>
			<point x="256.091796875" y="972.0842285156"/>
			<point x="256.091796875" y="626" type="qcurve" smooth="yes"/>
			<point x="256.091796875" y="370.778137207"/>
			<point x="445.3969116211" y="91.0021972656"/>
			<point x="618.6901245117" y="91.0021972656" type="qcurve" smooth="yes"/>
			<point x="776.6972045898" y="91.0021972656"/>
			<point x="954.3363647461" y="291.7093505859"/>
			<point x="954.3792114258" y="456.4001464844" type="qcurve" smooth="yes"/>
			<point x="954.4220581055" y="624.0015258789"/>
			<point x="799.5830078125" y="807.6267089844"/>
			<point x="651.8330078125" y="807.6267089844" type="qcurve" smooth="yes"/>
			<point x="563.6240234375" y="807.6267089844"/>
			<point x="489.0014038086" y="788.7423095703"/>
			<point x="476.1051025391" y="789.6915893555" type="qcurve"/>
			<point x="442.3485717773" y="853.8053588867" type="line"/>
			<point x="455.7535400391" y="869.1171875"/>
			<point x="575.7397460938" y="924.7145996094"/>
			<point x="666.6770019531" y="924.7145996094" type="qcurve" smooth="yes"/>
			<point x="894.4508666992" y="924.7145996094"/>
			<point x="1131.6286621094" y="686"/>
			<point x="1131.6286621094" y="529.8569335938" type="qcurve" smooth="yes"/>
			<point x="1131.6286621094" y="253.2597045898"/>
			<point x="836.5473022461" y="-22"/>
			<point x="625.6381225586" y="-22" type="qcurve" smooth="yes"/>
			<point x="374.5892333984" y="-22"/>
			<point x="75.9970703125" y="335.5974121094"/>
		</contour>
	</outline>
</glyph>
<glyph name="seven" format="2">
	<unicode hex="0037"/>
	<advance width="1057"/>
	<outline>
		<contour>
			<point x="55.3226318359" y="1103.0862426758" type="line"/>
			<point x="77.9970703125" y="1500" type="line"/>
			<point x="1063.9657592773" y="1500" type="line"/>
			<point x="1063.9657592773" y="1408.1668701172" type="line"/>
			<point x="726.3461303711" y="684.8809814453" type="line"/>
			<point x="375.5034790039" y="-53" type="line"/>
			<point x="239.2302246094" y="-53" type="line"/>
			<point x="239.2302246094" y="20.5950927734" type="line"/>
			<point x="603.5762939453" y="730.2380371094" type="line"/>
			<point x="871.497253418" y="1311.0838012695" type="line"/>
			<point x="845.9830932617" y="1337.0838012695" type="line"/>
			<point x="213.8780517578" y="1337.0838012695" type="line"/>
			<point x="176.3399658203" y="1103.0862426758" type="line"/>
		</contour>
	</outline>
</glyph>
<glyph name="eight" format="2">
	<unicode hex="0038"/>
	<advance width="1232"/>
	<outline>
		<contour>
			<point x="76.9970703125" y="392" type="qcurve" smooth="yes"/>
			<point x="76.9970703125" y="585.4025878906"/>
			<point x="376.9409790039" y="813.2640380859"/>
			<point x="462.1602783203" y="842.1267089844" type="qcurve"/>
			<point x="531.9214477539" y="784.7613525391" type="line"/>
			<point x="433.5977172852" y="743.0148925781"/>
			<point x="238.7559814453" y="550.6262817383"/>
			<point x="238.7559814453" y="402.1098632812" type="qcurve" smooth="yes"/>
			<point x="238.7559814453" y="264.9012451172"/>
			<point x="429.6701049805" y="93.0305175781"/>
			<point x="614.716796875" y="93.0305175781" type="qcurve" smooth="yes"/>
			<point x="786.8362426758" y="93.0305175781"/>
			<point x="979.2429199219" y="244.8155517578"/>
			<point x="979.2429199219" y="381.9678955078" type="qcurve" smooth="yes"/>
			<point x="979.2429199219" y="510.8782958984"/>
			<point x="772.0570068359" y="648.3171386719"/>
			<point x="591.7083129883" y="729.7966308594" type="qcurve" smooth="yes"/>
			<point x="331.2033691406" y="831.7890014648"/>
			<point x="175.211730957" y="1018.7404785156"/>
			<point x="175.211730957" y="1165.8928833008" type="qcurve" smooth="yes"/>
			<point x="175.211730957" y="1329.8928833008"/>
			<point x="439.8806152344" y="1520"/>
			<point x="632.1406860352" y="1520" type="qcurve" smooth="yes"/>
			<point x="830.8033447266" y="1520"/>
			<point x="1053.3101806641" y="1340"/>
			<point x="1053.3101806641" y="1207" type="qcurve" smooth="yes"/>
			<point x="1053.3101806641" y="1080.2077636719"/>
			<point x="895.6865234375" y="880.1428833008"/>
			<point x="750.1373901367" y="795.0899047852" type="qcurve"/>
			<point x="665.950378418" y="856.4281616211" type="line"/>
			<point x="791.4073486328" y="930.1616210938"/>
			<point x="898.7800292969" y="1080.1895751953"/>
			<point x="898.7800292969" y="1189.4996337891" type="qcurve" smooth="yes"/>
			<point x="898.7800292969" y="1294.8707275391"/>
			<point x="748.5494384766" y="1394.4989013672"/>
			<point x="625.6502075195" y="1394.4989013672" type="qcurve" smooth="yes"/>
			<point x="488.4761352539" y="1394.4989013672"/>
			<point x="339.5852050781" y="1284.1599121094"/>
			<point x="339.5852050781" y="1189.3199462891" type="qcurve" smooth="yes"/>
			<point x="339.5852050781" y="1096.8734741211"/>
			<point x="489.4641113281" y="960.8616943359"/>
			<point x="734.3128051758" y="862.0955200195" type="qcurve" smooth="yes"/>
			<point x="894.8914794922" y="783.2242431641"/>
			<point x="1154.6499633789" y="586.4586791992"/>
			<point x="1154.6499633789" y="409.0097045898" type="qcurve" smooth="yes"/>
			<point x="1154.6499633789" y="233"/>
			<point x="881.1756591797" y="-22"/>
			<point x="621.4891357422" y="-22" type="qcurve" smooth="yes"/>
			<point x="339.255065918" y="-22"/>
			<point x="76.9970703125" y="228"/>
		</contour>
	</outline>
</glyph>
<glyph name="nine" format="2">
	<unicode hex="0039"/>
	<advance width="1218"/>
	<outline>
		<contour>
			<point x="75.9970703125" y="999" type="qcurve" smooth="yes"/>
			<point x="75.9970703125" y="1250"/>
			<point x="364.8912963867" y="1520"/>
			<point x="567.783203125" y="1520" type="qcurve" smooth="yes"/>
			<point x="829.7735595703" y="1520"/>
			<point x="1131.6286621094" y="1161.3506469727"/>
			<point x="1131.6286621094" y="879" type="qcurve" smooth="yes"/>
			<point x="1131.6286621094" y="551"/>
			<point x="724.3326416016" y="44.3635864258"/>
			<point x="367.3494262695" y="-81" type="qcurve"/>
			<point x="339.7680664062" y="20.0426025391" type="line"/>
			<point x="593.7952270508" y="109.5062255859"/>
			<point x="951.4030151367" y="526.1300048828"/>
			<point x="951.4030151367" y="872" type="qcurve" smooth="yes"/>
			<point x="951.4030151367" y="1128.3199462891"/>
			<point x="753.4794921875" y="1409.1829833984"/>
			<point x="578.9865722656" y="1409.1829833984" type="qcurve" smooth="yes"/>
			<point x="421.2365722656" y="1409.1829833984"/>
			<point x="253.1156005859" y="1206.0981445312"/>
			<point x="253.1156005859" y="1039.7687988281" type="qcurve" smooth="yes"/>
			<point x="253.1156005859" y="870.7596435547"/>
			<point x="397.2052612305" y="690.2875976562"/>
			<point x="545.426574707" y="690.2875976562" type="qcurve" smooth="yes"/>
			<point x="610.2086791992" y="690.2875976562"/>
			<point x="704.3739624023" y="714.7395019531"/>
			<point x="715.6105957031" y="713.3110351562" type="qcurve"/>
			<point x="753.6105957031" y="660.0909423828" type="line"/>
			<point x="733.2045898438" y="633.5584106445"/>
			<point x="611.6674804688" y="572"/>
			<point x="523.7194213867" y="572" type="qcurve" smooth="yes"/>
			<point x="319.8133544922" y="572"/>
			<point x="75.9970703125" y="812"/>
		</contour>
	</outline>
</glyph>
<glyph name="D" format="2">
	<unicode hex="0044"/>
	<advance width="1595"/>
	<outline>
		<contour>
			<point x="82.001953125" y="0" type="line"/>
			<point x="82.001953125" y="100" type="line"/>
			<point x="289.9995117188" y="135" type="line"/>
			<point x="291.9995117188" y="754" type="line"/>
			<point x="289.9995117188" y="1352" type="line"/>
			<point x="82.001953125" y="1386" type="line"/>
			<point x="82.001953125" y="1500" type="line"/>
			<point x="783.4320068359" y="1500" type="line" smooth="yes"/>
			<point x="1088.6317749023" y="1500"/>
			<point x="1515.2543334961" y="1102"/>
			<point x="1515.2543334961" y="777" type="qcurve" smooth="yes"/>
			<point x="1515.2543334961" y="426"/>
			<point x="1085.044921875" y="-9"/>
			<point x="723.2098388672" y="-6" type="qcurve" smooth="yes"/>
		</contour>
		<contour>
			<point x="466.9889526367" y="116" type="line"/>
			<point x="494.8961791992" y="110"/>
			<point x="701.158996582" y="101"/>
			<point x="743.330871582" y="101" type="qcurve" smooth="yes"/>
			<point x="932.9553833008" y="101"/>
			<point x="1313.3285522461" y="419.1826171875"/>
			<point x="1313.3285522461" y="757" type="qcurve" smooth="yes"/>
			<point x="1313.3285522461" y="1088.205078125"/>
			<point x="940.5599975586" y="1381"/>
			<point x="708.4120483398" y="1381" type="qcurve" smooth="yes"/>
			<point x="679.852722168" y="1381"/>
			<point x="501.5899047852" y="1369"/>
			<point x="466.9889526367" y="1364" type="qcurve"/>
			<point x="463.9889526367" y="750" type="line"/>
		</contour>
	</outline>
	<anchor name="bottom" x="686" y="0"/>
	<anchor name="center" x="438" y="754"/>
	<anchor name="top" x="686" y="1500"/>
	<anchor name="liga" x="1590" y="0"/>
</glyph>
<glyph name="F" format="2">
	<unicode hex="0046"/>
	<advance width="1122"/>
	<outline>
		<contour>
			<point x="82.001953125" y="0" type="line"/>
			<point x="82.001953125" y="100" type="line"/>
			<point x="289.9995117188" y="135" type="line"/>
			<point x="291.9995117188" y="760" type="line"/>
			<point x="289.9995117188" y="1352" type="line"/>
			<point x="82.001953125" y="1385" type="line"/>
			<point x="82.001953125" y="1500" type="line"/>
			<point x="1103.967956543" y="1500" type="line"/>
			<point x="1103.967956543" y="1142" type="line"/>
			<point x="998.9722290039" y="1142" type="line"/>
			<point x="949.9722290039" y="1382" type="line"/>
			<point x="498.9889526367" y="1382" type="line"/>
			<point x="469.9889526367" y="1362" type="line"/>
			<point x="466.9889526367" y="760" type="line"/>
			<point x="468.9889526367" y="135" type="line"/>
			<point x="656.9865112305" y="100" type="line"/>
			<point x="656.9865112305" y="0" type="line"/>
		</contour>
		<contour>
			<point x="381.4443969727" y="704" type="line"/>
			<point x="381.4443969727" y="816" type="line"/>
			<point x="822.3049926758" y="821" type="line"/>
			<point x="867.3049926758" y="988" type="line"/>
			<point x="957.967956543" y="988" type="line"/>
			<point x="957.967956543" y="522" type="line"/>
			<point x="867.3049926758" y="522" type="line"/>
			<point x="822.3049926758" y="699" type="line"/>
		</contour>
	</outline>
	<anchor name="bottom" x="578" y="0"/>
	<anchor name="top" x="622" y="1500"/>
</glyph>
<glyph name="K" format="2">
	<unicode hex="004B"/>
	<advance width="1455"/>
	<outline>
		<contour>
			<point x="82.001953125" y="0" type="line"/>
			<point x="82.001953125" y="100" type="line"/>
			<point x="289.9995117188" y="135" type="line"/>
			<point x="291.9995117188" y="754" type="line"/>
			<point x="289.9995117188" y="1352" type="line"/>
			<point x="82.001953125" y="1386" type="line"/>
			<point x="82.001953125" y="1500" type="line"/>
			<point x="674.9865112305" y="1500" type="line"/>
			<point x="674.9865112305" y="1386" type="line"/>
			<point x="469.9889526367" y="1352" type="line"/>
			<point x="467.9889526367" y="755.8786621094" type="line"/>
			<point x="469.9889526367" y="135" type="line"/>
			<point x="674.9865112305" y="100" type="line"/>
			<point x="674.9865112305" y="0" type="line"/>
		</contour>
		<contour>
			<point x="387.9896850586" y="463.5333251953" type="line"/>
			<point x="387.9896850586" y="628.5595092773" type="line"/>
			<point x="1041.0430908203" y="1352" type="line"/>
			<point x="893.0465087891" y="1386" type="line"/>
			<point x="893.0465087891" y="1500" type="line"/>
			<point x="1440.0399169922" y="1500" type="line"/>
			<point x="1440.0399169922" y="1386" type="line"/>
			<point x="1264.0430908203" y="1352" type="line"/>
			<point x="723.9868774414" y="838.8635864258" type="line"/>
			<point x="695.157043457" y="798.8635864258" type="line"/>
		</contour>
		<contour>
			<point x="629.8739013672" y="796.6110839844" type="line"/>
			<point x="758.9266967773" y="928.1824951172" type="line"/>
			<point x="1348.4653320312" y="135" type="line"/>
			<point x="1511.4621582031" y="100" type="line"/>
			<point x="1511.4621582031" y="0" type="line"/>
			<point x="914.7238769531" y="0" type="line"/>
			<point x="914.7238769531" y="100" type="line"/>
			<point x="1098.7214355469" y="135" type="line"/>
		</contour>
	</outline>
	<anchor name="bottom" x="812" y="0"/>
	<anchor name="top" x="770" y="1500"/>
</glyph>
<glyph name="P" format="2">
	<unicode hex="0050"/>
	<advance width="1227"/>
	<outline>
		<contour>
			<point x="82.001953125" y="0" type="line"/>
			<point x="82.001953125" y="100" type="line"/>
			<point x="289.9995117188" y="136" type="line"/>
			<point x="291.9995117188" y="754" type="line"/>
			<point x="289.9995117188" y="1352" type="line"/>
			<point x="82.001953125" y="1386" type="line"/>
			<point x="82.001953125" y="1500" type="line"/>
			<point x="746.4163208008" y="1500" type="line" smooth="yes"/>
			<point x="962.1756591797" y="1500"/>
			<point x="1191.0303955078" y="1284"/>
			<point x="1191.0303955078" y="1072" type="qcurve" smooth="yes"/>
			<point x="1191.0303955078" y="855"/>
			<point x="963.7531738281" y="592"/>
			<point x="716.8394165039" y="592" type="qcurve" smooth="yes"/>
			<point x="658.0317382812" y="592"/>
			<point x="412.2256469727" y="613"/>
			<point x="386.6826782227" y="621" type="qcurve"/>
			<point x="390.9889526367" y="733.3294677734" type="line"/>
			<point x="430.5435180664" y="721"/>
			<point x="585.4848632812" y="712"/>
			<point x="687.4848632812" y="712" type="qcurve" smooth="yes"/>
			<point x="837.8505859375" y="712"/>
			<point x="1030.0591430664" y="893.9995117188"/>
			<point x="1030.0591430664" y="1072" type="qcurve" smooth="yes"/>
			<point x="1030.0591430664" y="1233.0209960938"/>
			<point x="830.5788574219" y="1370"/>
			<point x="716.5339355469" y="1370" type="qcurve" smooth="yes"/>
			<point x="493.9889526367" y="1370" type="line"/>
			<point x="466.9889526367" y="1351" type="line"/>
			<point x="461.9889526367" y="764" type="line"/>
			<point x="463.9889526367" y="135" type="line"/>
			<point x="681.9865112305" y="100" type="line"/>
			<point x="681.9865112305" y="0" type="line"/>
		</contour>
	</outline>
	<anchor name="bottom" x="634" y="0"/>
	<anchor name="top" x="634" y="1500"/>
</glyph>
<glyph name="S" format="2">
	<unicode hex="0053"/>
	<advance width="1085"/>
	<outline>
		<contour>
			<point x="61.6663818359" y="0" type="line"/>
			<point x="61.6663818359" y="484" type="line"/>
			<point x="173.662109375" y="484" type="line"/>
			<point x="201.662109375" y="379" type="line" smooth="yes"/>
			<point x="240.662109375" y="234"/>
			<point x="444.3742675781" y="102"/>
			<point x="587.9970703125" y="102" type="qcurve" smooth="yes"/>
			<point x="742.255859375" y="102"/>
			<point x="880.3370361328" y="226.3065185547"/>
			<point x="881.0075683594" y="354.7557373047" type="qcurve" smooth="yes"/>
			<point x="881.6781005859" y="509.4455566406"/>
			<point x="714.7292480469" y="645.7845458984"/>
			<point x="497.4784545898" y="725.3231811523" type="qcurve" smooth="yes"/>
			<point x="307.1090698242" y="794.9673461914"/>
			<point x="104.1295166016" y="975.9912719727"/>
			<point x="104.1295166016" y="1154.7093505859" type="qcurve" smooth="yes"/>
			<point x="104.1295166016" y="1317.2455444336"/>
			<point x="327.5411376953" y="1520"/>
			<point x="521.0992431641" y="1520" type="qcurve" smooth="yes"/>
			<point x="605.8848876953" y="1520"/>
			<point x="757.8108520508" y="1458.4420776367"/>
			<point x="802.1697387695" y="1421" type="qcurve"/>
			<point x="821.7822875977" y="1487" type="line"/>
			<point x="923.1422729492" y="1487" type="line"/>
			<point x="923.1422729492" y="1051" type="line"/>
			<point x="813.1465454102" y="1051" type="line"/>
			<point x="779.1465454102" y="1203" type="line" smooth="yes"/>
			<point x="760.1465454102" y="1289"/>
			<point x="595.7925415039" y="1386"/>
			<point x="515.8193969727" y="1386" type="qcurve" smooth="yes"/>
			<point x="394.9771118164" y="1386"/>
			<point x="274.8216552734" y="1282.0743408203"/>
			<point x="275.4921875" y="1182.2374267578" type="qcurve" smooth="yes"/>
			<point x="276.1627197266" y="1074.0373535156"/>
			<point x="378.8225708008" y="953.9632568359"/>
			<point x="661.5101928711" y="859.008972168" type="qcurve" smooth="yes"/>
			<point x="776.5091552734" y="796.8218383789"/>
			<point x="1056.1246948242" y="601.126953125"/>
			<point x="1056.1246948242" y="417.481628418" type="qcurve" smooth="yes"/>
			<point x="1056.1246948242" y="225.0181884766"/>
			<point x="805.8201293945" y="-27"/>
			<point x="599.2117919922" y="-27" type="qcurve" smooth="yes"/>
			<point x="470.6105957031" y="-27"/>
			<point x="265.8847045898" y="55.4669799805"/>
			<point x="222.662109375" y="113" type="qcurve"/>
			<point x="157.662109375" y="0" type="line"/>
		</contour>
	</outline>
	<anchor name="bottom" x="599" y="0"/>
	<anchor name="top" x="514" y="1500"/>
</glyph>
<glyph name="U" format="2">
	<unicode hex="0055"/>
	<advance width="1624"/>
	<outline>
		<contour>
			<point x="59.3353271484" y="1386" type="line"/>
			<point x="59.3353271484" y="1500" type="line"/>
			<point x="651.0561523438" y="1500" type="line"/>
			<point x="651.0561523438" y="1386" type="line"/>
			<point x="449.05859375" y="1352" type="line"/>
			<point x="444.05859375" y="823.7680664062" type="line"/>
			<point x="447.05859375" y="511.5988769531" type="line" smooth="yes"/>
			<point x="448.7175292969" y="262.5988769531"/>
			<point x="668.3916625977" y="113.3634033203"/>
			<point x="836.9448852539" y="113.3634033203" type="qcurve" smooth="yes"/>
			<point x="1001.8076782227" y="113.3634033203"/>
			<point x="1255.5501708984" y="242.5988769531"/>
			<point x="1252.9226074219" y="531.5988769531" type="qcurve" smooth="yes"/>
			<point x="1251.5815429688" y="823.7680664062" type="line"/>
			<point x="1250.9226074219" y="1352" type="line"/>
			<point x="1032.9250488281" y="1386" type="line"/>
			<point x="1032.9250488281" y="1500" type="line"/>
			<point x="1593.9201660156" y="1500" type="line"/>
			<point x="1593.9201660156" y="1386" type="line"/>
			<point x="1395.9226074219" y="1352" type="line"/>
			<point x="1393.9226074219" y="823.7680664062" type="line"/>
			<point x="1397.9226074219" y="524.5640869141" type="line" smooth="yes"/>
			<point x="1402.2404785156" y="239.6057128906"/>
			<point x="1117.4833984375" y="-31"/>
			<point x="829.727355957" y="-31" type="qcurve" smooth="yes"/>
			<point x="540.4426269531" y="-31"/>
			<point x="266.6739501953" y="241.9235839844"/>
			<point x="267.3328857422" y="513.9051513672" type="qcurve" smooth="yes"/>
			<point x="269.3237915039" y="823.7680664062" type="line"/>
			<point x="267.3328857422" y="1352" type="line"/>
		</contour>
	</outline>
	<anchor name="bottom" x="832" y="0"/>
	<anchor name="ogonek" x="1042" y="0"/>
	<anchor name="top" x="832" y="1500"/>
	<anchor name="topright" x="1590" y="1500"/>
</glyph>
<glyph name="V" format="2">
	<unicode hex="0056"/>
	<advance width="1491"/>
	<outline>
		<contour>
			<point x="-14.0004882812" y="1384" type="line"/>
			<point x="-14.0004882812" y="1500" type="line"/>
			<point x="486.4741210938" y="1500" type="line"/>
			<point x="486.4741210938" y="1384" type="line"/>
			<point x="340.4777832031" y="1350" type="line"/>
			<point x="527.8345947266" y="840.74609375" type="line"/>
			<point x="688.9360961914" y="422.1441040039" type="line"/>
			<point x="754.3200683594" y="255.9759521484" type="line"/>
			<point x="764.3200683594" y="255.9759521484" type="line"/>
			<point x="827.0966796875" y="419.6392211914" type="line"/>
			<point x="956.2456054688" y="797.3719482422" type="line"/>
			<point x="1161.109375" y="1350" type="line"/>
			<point x="1008.1130371094" y="1384" type="line"/>
			<point x="1006.1130371094" y="1500" type="line"/>
			<point x="1481.477722168" y="1500" type="line"/>
			<point x="1482.477722168" y="1384" type="line"/>
			<point x="1320.4811401367" y="1350" type="line"/>
			<point x="1095.9847412109" y="769.7288818359" type="line"/>
			<point x="791.0569458008" y="-8" type="line"/>
			<point x="686.8794555664" y="-8" type="line"/>
			<point x="360.3618164062" y="792.647277832" type="line"/>
			<point x="137.99609375" y="1350" type="line"/>
		</contour>
	</outline>
	<anchor name="bottom" x="723" y="0"/>
	<anchor name="top" x="733" y="1500"/>
</glyph>
<glyph name="Y" format="2">
	<unicode hex="0059"/>
	<advance width="1301"/>
	<outline>
		<contour>
			<point x="361.0895385742" y="0" type="line"/>
			<point x="361.0895385742" y="100" type="line"/>
			<point x="542.087097168" y="135" type="line"/>
			<point x="544.087097168" y="648.864440918" type="line"/>
			<point x="363.8203125" y="972.8688964844" type="line"/>
			<point x="139.99609375" y="1360" type="line"/>
			<point x="-32.0014648438" y="1386" type="line"/>
			<point x="-32.0014648438" y="1500" type="line"/>
			<point x="520.9979858398" y="1500" type="line"/>
			<point x="520.9979858398" y="1386" type="line"/>
			<point x="345.0004272461" y="1357" type="line"/>
			<point x="530.2210083008" y="1032.038269043" type="line"/>
			<point x="666.032409668" y="796.068359375" type="line"/>
			<point x="676.032409668" y="796.068359375" type="line"/>
			<point x="828.0101318359" y="1079.9877929688" type="line"/>
			<point x="973.1145629883" y="1358" type="line"/>
			<point x="796.1170043945" y="1386" type="line"/>
			<point x="796.1170043945" y="1500" type="line"/>
			<point x="1302.5681762695" y="1500" type="line"/>
			<point x="1302.5681762695" y="1386" type="line"/>
			<point x="1134.5706176758" y="1359" type="line"/>
			<point x="935.2723388672" y="1020.5024414062" type="line"/>
			<point x="716.012878418" y="653.2915039062" type="line"/>
			<point x="718.012878418" y="135" type="line"/>
			<point x="896.0104370117" y="100" type="line"/>
			<point x="896.0104370117" y="0" type="line"/>
		</contour>
	</outline>
	<anchor name="bottom" x="636" y="0"/>
	<anchor name="top" x="640" y="1500"/>
	<anchor name="tonos" x="-100" y="1500"/>
	<anchor name="center" x="636" y="582"/>
</glyph>
<glyph name="Z" format="2">
	<unicode hex="005A"/>
	<advance width="1182"/>
	<outline>
		<contour>
			<point x="77.9998779297" y="0" type="line"/>
			<point x="50.9998779297" y="84" type="line"/>
			<point x="909.4296875" y="1374" type="line"/>
			<point x="900.4296875" y="1382" type="line"/>
			<point x="273.6636962891" y="1382" type="line"/>
			<point x="209.6636962891" y="1058" type="line"/>
			<point x="114.66796875" y="1058" type="line"/>
			<point x="114.66796875" y="1500" type="line"/>
			<point x="1101.2573852539" y="1500" type="line"/>
			<point x="1101.2573852539" y="1409" type="line"/>
			<point x="257.255065918" y="121" type="line"/>
			<point x="265.255065918" y="115" type="line"/>
			<point x="956.7153320312" y="115" type="line"/>
			<point x="1046.7153320312" y="398" type="line"/>
			<point x="1152.7110595703" y="398" type="line"/>
			<point x="1109.7110595703" y="0" type="line"/>
		</contour>
	</outline>
	<anchor name="bottom" x="583" y="0"/>
	<anchor name="top" x="583" y="1500"/>
	<anchor name="_liga" x="0" y="0"/>
</glyph>
<glyph name="f" format="2">
	<unicode hex="0066"/>
	<advance width="586"/>
	<outline>
		<contour>
			<point x="48.0956420898" y="0" type="line"/>
			<point x="48.0956420898" y="79.99609375" type="line"/>
			<point x="211.0956420898" y="114.99609375" type="line"/>
			<point x="218.0956420898" y="527" type="line"/>
			<point x="215.0956420898" y="869.7563476562" type="line"/>
			<point x="56.2411499023" y="874.7563476562" type="line"/>
			<point x="56.2411499023" y="967.7563476562" type="line"/>
			<point x="217.0956420898" y="985.7563476562" type="line"/>
			<point x="221.8349609375" y="1285.1043701172" type="line" smooth="yes"/>
			<point x="224.032409668" y="1405.3828125"/>
			<point x="353.7883300781" y="1518"/>
			<point x="453.662902832" y="1518" type="qcurve" smooth="yes"/>
			<point x="505.1929931641" y="1518"/>
			<point x="593.3492431641" y="1496.8627929688"/>
			<point x="600.9866333008" y="1492.6867675781" type="qcurve" smooth="yes"/>
			<point x="611.6636352539" y="1485.361328125" type="line"/>
			<point x="592.5876464844" y="1373.2250976562" type="line"/>
			<point x="591.6365356445" y="1377.0249023438" type="line" smooth="yes"/>
			<point x="575.7700195312" y="1385.1845703125"/>
			<point x="533.1107177734" y="1395.5244140625"/>
			<point x="518.0034790039" y="1395.5244140625" type="qcurve" smooth="yes"/>
			<point x="448.7314453125" y="1395.5244140625"/>
			<point x="370.2209472656" y="1324.2577514648"/>
			<point x="370.5448608398" y="1257.4362792969" type="qcurve" smooth="yes"/>
			<point x="372.5848999023" y="986.7563476562" type="line"/>
			<point x="594.9904785156" y="986.7563476562" type="line"/>
			<point x="594.9904785156" y="875.7563476562" type="line"/>
			<point x="372.5848999023" y="875.7563476562" type="line"/>
			<point x="374.5848999023" y="527" type="line"/>
			<point x="383.5848999023" y="114.99609375" type="line"/>
			<point x="571.0848999023" y="79.99609375" type="line"/>
			<point x="571.0848999023" y="0" type="line"/>
		</contour>
	</outline>
	<anchor name="bottom" x="314" y="0"/>
	<anchor name="top" x="314" y="1536"/>
</glyph>
<glyph name="p" format="2">
	<unicode hex="0070"/>
	<advance width="1188"/>
	<outline>
		<contour>
			<point x="60.6967773438" y="-480" type="line"/>
			<point x="60.6967773438" y="-404.00390625" type="line"/>
			<point x="204.1967773438" y="-369.00390625" type="line"/>
			<point x="206.1967773438" y="427.9846191406" type="line"/>
			<point x="204.1967773438" y="847.9731445312" type="line"/>
			<point x="55.6967773438" y="877.9731445312" type="line"/>
			<point x="55.6967773438" y="967.9692382812" type="line"/>
			<point x="301.2766113281" y="1001.9692382812" type="line"/>
			<point x="336.2766113281" y="974.9692382812" type="line"/>
			<point x="362.2766113281" y="842.9692382812" type="line"/>
			<point x="394.2734375" y="919.7498779297"/>
			<point x="589.4802856445" y="1022.1022949219"/>
			<point x="710.3560180664" y="1022.1022949219" type="qcurve" smooth="yes"/>
			<point x="910.4155273438" y="1022.1022949219"/>
			<point x="1123.0030517578" y="738.5168457031"/>
			<point x="1123.0030517578" y="526.9846191406" type="qcurve" smooth="yes"/>
			<point x="1123.0030517578" y="299.5322265625"/>
			<point x="880.3272705078" y="-26"/>
			<point x="683.9124755859" y="-26" type="qcurve" smooth="yes"/>
			<point x="564.4595947266" y="-26"/>
			<point x="407.6766357422" y="53.2016601562"/>
			<point x="366.2766113281" y="97" type="qcurve"/>
			<point x="368.2766113281" y="-369.00390625" type="line"/>
			<point x="525.7766113281" y="-404.00390625" type="line"/>
			<point x="525.7766113281" y="-480" type="line"/>
		</contour>
		<contour>
			<point x="366.2766113281" y="259" type="line"/>
			<point x="365.8529052734" y="193.6254882812"/>
			<point x="530.1019287109" y="90.078125"/>
			<point x="648.9387207031" y="90.078125" type="qcurve" smooth="yes"/>
			<point x="785.242980957" y="90.078125"/>
			<point x="945.6146240234" y="327.5189208984"/>
			<point x="945.6146240234" y="508.9846191406" type="qcurve" smooth="yes"/>
			<point x="945.6146240234" y="675.5301513672"/>
			<point x="779.5993041992" y="900.7155761719"/>
			<point x="651.2950439453" y="900.7155761719" type="qcurve" smooth="yes"/>
			<point x="531.80078125" y="900.7155761719"/>
			<point x="394.0921020508" y="792.1038818359"/>
			<point x="368.2766113281" y="718.6174316406" type="qcurve"/>
			<point x="364.2766113281" y="430.9846191406" type="line"/>
		</contour>
	</outline>
	<anchor name="bottom" x="599" y="0"/>
	<anchor name="top" x="599" y="1000"/>
</glyph>
<glyph name="t" format="2">
	<unicode hex="0074"/>
	<advance width="633"/>
	<outline>
		<contour>
			<point x="55.8278808594" y="875.6232910156" type="line"/>
			<point x="55.8278808594" y="949.6232910156" type="line"/>
			<point x="173.8278808594" y="977.6232910156"/>
			<point x="287.075378418" y="1102.7297363281"/>
			<point x="322.075378418" y="1200" type="qcurve"/>
			<point x="364.5092163086" y="1200" type="line"/>
			<point x="397.5092163086" y="1160" type="line"/>
			<point x="392.5092163086" y="986.6232910156" type="line"/>
			<point x="610.04296875" y="986.6232910156" type="line"/>
			<point x="610.04296875" y="875.6232910156" type="line"/>
			<point x="390.5092163086" y="875.6232910156" type="line"/>
			<point x="380.5092163086" y="528.6232910156" type="line"/>
			<point x="384.5092163086" y="251" type="line" smooth="yes"/>
			<point x="385.5092163086" y="166"/>
			<point x="480.0733032227" y="106"/>
			<point x="579.7655639648" y="114" type="qcurve" smooth="yes"/>
			<point x="606.3420410156" y="124" type="line"/>
			<point x="606.3420410156" y="39" type="line"/>
			<point x="354.3220214844" y="-8" type="line"/>
			<point x="274.4926147461" y="-8"/>
			<point x="218.5158081055" y="92.9855957031"/>
			<point x="218.5158081055" y="183" type="qcurve" smooth="yes"/>
			<point x="218.5158081055" y="528.6232910156" type="line"/>
			<point x="218.5158081055" y="863.6232910156" type="line"/>
		</contour>
	</outline>
	<anchor name="bottom" x="322" y="0"/>
	<anchor name="center" x="312" y="622"/>
	<anchor name="top" x="322" y="1179"/>
	<anchor name="topright" x="540" y="1000"/>
</glyph>
<glyph name="jdotless" format="2">
	<advance width="683"/>
	<outline>
		<contour>
			<point x="62.1690673828" y="-471" type="qcurve"/>
			<point x="62.1690673828" y="-346.7236328125" type="line"/>
			<point x="173.1133422852" y="-343.7236328125"/>
			<point x="238.6487426758" y="-252.5484008789"/>
			<point x="238.668762207" y="-140.8988647461" type="qcurve" smooth="yes"/>
			<point x="236.668762207" y="528.9692382812" type="line"/>
			<point x="230.588684082" y="847.9731445312" type="line"/>
			<point x="82.668762207" y="877.9731445312" type="line"/>
			<point x="82.668762207" y="967.9692382812" type="line"/>
			<point x="334.676574707" y="1001.9692382812" type="line"/>
			<point x="381.676574707" y="1001.9692382812" type="line"/>
			<point x="404.676574707" y="962.9692382812" type="line"/>
			<point x="398.676574707" y="528.9692382812" type="line"/>
			<point x="400.676574707" y="-116.217956543" type="line" smooth="yes"/>
			<point x="401.676574707" y="-295.217956543"/>
			<point x="225.1114501953" y="-482.0144042969"/>
		</contour>
	</outline>
	<anchor name="bottom" x="278" y="-436"/>
	<anchor name="top" x="278" y="1000"/>
	<anchor name="_liga" x="0" y="0"/>
</glyph>
